<svg xmlns="http://www.w3.org/2000/svg" width="900" height="700">
<style>
.box { fill: #f7f7f7; stroke: #333; stroke-width: 1; }
.text { font-family: Arial, sans-serif; font-size: 14px; }
.line { stroke: #333; stroke-width: 1; }
</style>
<rect class="box" x="270" y="40" width="360" height="60" rx="6" ry="6"/>
<text class="text" x="282" y="64">Records identified</text>
<text class="text" x="282" y="84">n=NA</text>
<rect class="box" x="270" y="120" width="360" height="60" rx="6" ry="6"/>
<text class="text" x="282" y="144">Records after deduplication</text>
<text class="text" x="282" y="164">n=NA</text>
<line class="line" x1="450.0" y1="100" x2="450.0" y2="120" />
<rect class="box" x="270" y="200" width="360" height="60" rx="6" ry="6"/>
<text class="text" x="282" y="224">Records screened</text>
<text class="text" x="282" y="244">n=NA</text>
<line class="line" x1="450.0" y1="180" x2="450.0" y2="200" />
<rect class="box" x="270" y="280" width="360" height="60" rx="6" ry="6"/>
<text class="text" x="282" y="304">Records excluded</text>
<text class="text" x="282" y="324">n=0</text>
<line class="line" x1="450.0" y1="260" x2="450.0" y2="280" />
<rect class="box" x="270" y="360" width="360" height="60" rx="6" ry="6"/>
<text class="text" x="282" y="384">Reports sought for retrieval</text>
<text class="text" x="282" y="404">n=0</text>
<line class="line" x1="450.0" y1="340" x2="450.0" y2="360" />
<rect class="box" x="270" y="440" width="360" height="60" rx="6" ry="6"/>
<text class="text" x="282" y="464">Reports assessed for eligibility</text>
<text class="text" x="282" y="484">n=NA</text>
<line class="line" x1="450.0" y1="420" x2="450.0" y2="440" />
<rect class="box" x="270" y="520" width="360" height="60" rx="6" ry="6"/>
<text class="text" x="282" y="544">Studies included</text>
<text class="text" x="282" y="564">n=0</text>
<line class="line" x1="450.0" y1="500" x2="450.0" y2="520" />
</svg>
